<?xml version="1.0" encoding="UTF-8" standalone="no"?>
<svg
   id="svg2"
   viewBox="0 0 550 550"
   version="1.1"
   inkscape:version="1.4.2 (ebf0e940d0, 2025-05-08)"
   sodipodi:docname="cold_water.svg"
   width="550"
   height="550"
   xmlns:inkscape="http://www.inkscape.org/namespaces/inkscape"
   xmlns:sodipodi="http://sodipodi.sourceforge.net/DTD/sodipodi-0.dtd"
   xmlns="http://www.w3.org/2000/svg"
   xmlns:svg="http://www.w3.org/2000/svg"
   xmlns:rdf="http://www.w3.org/1999/02/22-rdf-syntax-ns#"
   xmlns:cc="http://creativecommons.org/ns#"
   xmlns:dc="http://purl.org/dc/elements/1.1/">
  <defs
     id="defs18529" />
  <sodipodi:namedview
     pagecolor="#ffffff"
     bordercolor="#666666"
     borderopacity="1"
     objecttolerance="10"
     gridtolerance="10"
     guidetolerance="10"
     inkscape:pageopacity="0"
     inkscape:pageshadow="2"
     inkscape:window-width="1916"
     inkscape:window-height="1149"
     id="namedview18527"
     showgrid="false"
     inkscape:zoom="1.2405942"
     inkscape:cx="248.26813"
     inkscape:cy="295.82598"
     inkscape:window-x="0"
     inkscape:window-y="0"
     inkscape:window-maximized="1"
     inkscape:current-layer="svg2"
     fit-margin-top="0"
     fit-margin-left="0"
     fit-margin-right="0"
     fit-margin-bottom="0"
     inkscape:showpageshadow="2"
     inkscape:pagecheckerboard="0"
     inkscape:deskcolor="#d1d1d1" />
  <title
     id="title3083">Onsen Mark 02</title>
  <g
     id="layer1"
     transform="translate(654.56796,-525.53901)"
     style="fill:#9f6060;fill-opacity:1">
    <g
       id="g3018"
       style="fill:#9f6060;fill-opacity:1">
      <path
         sodipodi:nodetypes="cccccsccsccccsscsscscccc"
         inkscape:connector-curvature="0"
         d="m -189.96672,830.11815 c -5.0719,0.74907 -6.29077,11.92741 -1.6875,15.47624 5.3511,4.442 9.3329,9.02802 11.75,13.18542 10.29127,21.39672 26.60917,42.09673 4.60091,65.07981 -30.8826,23.08839 -37.25747,21.79717 -55.93147,28.623 -37.347,13.65004 -89.406,22.19618 -146.91,22.19618 -57.5,0 -111.17213,0.32058 -148.52213,-13.32946 -52.79136,-30.82871 -59.71911,-29.98577 -58.65155,-92.18416 0,-2.94341 0.80876,-6.23008 3.2188,-10.38537 2.41004,-4.15528 6.3724,-8.74586 11.719,-13.18542 4.81715,-3.92487 2.9442,-15.77758 -2.4375,-15.42541 -0.41245,0.0195 -0.82183,0.1221 -1.2188,0.30545 -21.098,9.84761 -38.218,21.27738 -50.437,34.41426 -12.219,13.1364 -20.094,28.74345 -20.094,46.83598 0,19.34041 8.9118,35.75337 22.688,49.53374 13.776,13.78053 33.087,25.66123 56.781,35.68653 47.389,20.05236 112.34,32.32746 184.09,32.32746 71.754,0 136.7,-12.2742 184.09,-32.32746 23.694,-10.02644 43.006,-21.90616 56.781,-35.68653 13.776,-13.78053 22.688,-30.19333 22.688,-49.53374 0,-18.09742 -7.9002,-33.70072 -20.125,-46.83598 -12.225,-13.13492 -29.332,-24.56649 -50.438,-34.41426 -0.63511,-0.33148 -1.30451,-0.45264 -1.9688,-0.35636 z"
         style="color:#000000;text-indent:0;text-transform:none;fill:#9f6060;fill-opacity:1"
         id="path3601" />
    </g>
  </g>
  <g
     id="g1"
     transform="matrix(1.2525532,0,0,1.2525532,-49.672262,-63.08508)">
    <path
       id="path15989"
       d="m 172.94362,309.65241 c -4.43881,-9.93073 -13.31645,-103.27306 -4.43881,-115.18668 8.87763,-11.91904 97.64797,-21.84977 113.17784,-9.93073 15.53586,11.91362 62.13744,27.80387 64.35685,37.7346 2.21941,9.93072 13.31645,91.35402 2.21941,103.27306 -11.09704,11.91362 -102.08081,29.78676 -113.17785,25.81555 -11.09704,-3.97121 -62.13744,-41.7058 -62.13744,-41.7058 z"
       style="fill-rule:evenodd;stroke-width:0.5693" />
    <path
       id="path9031"
       d="m 175.85099,308.6718 c -4.28328,-9.7086 -12.8618,-100.97594 -4.28328,-112.62409 8.57254,-11.64815 94.33979,-21.35675 109.34323,-9.7086 15.00942,11.64815 60.03768,27.18625 62.17932,36.89484 2.14762,9.7086 12.86778,89.31695 2.14762,100.97052 -10.72016,11.64815 -98.62906,29.1258 -109.34921,25.24128 -10.72016,-3.88453 -60.03768,-40.77395 -60.03768,-40.77395 z"
       fill="#5bffff"
       style="fill-rule:evenodd;stroke-width:0.5693" />
    <path
       id="path7511"
       d="m 240.17793,320.31995 c -8.57852,-9.7086 -10.72016,-60.19657 -4.28926,-71.84472 6.43089,-11.64815 64.32095,-11.64815 66.46857,-3.88452 2.14164,7.76904 8.57254,9.7086 -8.57852,13.59312 -17.15106,3.88452 -36.44974,0 -42.88064,7.76905 -6.43089,7.76362 -6.43089,64.07567 -6.43089,64.07567 z"
       fill="#f0ffff"
       style="fill-rule:evenodd;stroke-width:0.5693" />
    <path
       id="path8271"
       d="m 179.7873,266.92807 c -4.30123,-10.51043 -5.37803,-47.5678 -2.15361,-53.2456 3.23041,-5.68321 32.28611,18.29573 33.36291,24.74826 1.0768,6.45253 4.30122,10.51043 -4.30721,6.18707 -8.60843,-4.32337 -18.29366,-15.09926 -21.51809,-12.20077 -3.2304,2.8985 -3.2304,43.24445 -3.2304,43.24445 z"
       fill="#f0ffff"
       style="fill-rule:evenodd;stroke-width:0.5693" />
    <path
       id="path16750"
       d="m 180.14025,200.84241 c 0,0 19.13117,9.62734 27.63193,19.24925 8.50075,9.62734 11.68928,11.55064 21.25487,12.50958 9.5596,0.96435 69.07084,-6.73426 75.4479,-9.62192 6.37706,-2.88766 -54.19902,7.69862 -68.01199,5.77532 -13.81297,-1.9233 -19.1252,-8.66298 -31.87931,-15.39723 -12.75412,-6.73968 -24.4434,-12.515 -24.4434,-12.515 z"
       fill="#0cd9eb"
       style="fill-rule:evenodd;stroke-width:0.5693" />
  </g>
  <metadata
     id="metadata18525">
    <rdf:RDF>
      <cc:Work>
        <dc:format>image/svg+xml</dc:format>
        <dc:type
           rdf:resource="http://purl.org/dc/dcmitype/StillImage" />
        <cc:license
           rdf:resource="http://creativecommons.org/publicdomain/zero/1.0/" />
        <dc:publisher>
          <cc:Agent
             rdf:about="http://openclipart.org/">
            <dc:title>Openclipart</dc:title>
          </cc:Agent>
        </dc:publisher>
        <dc:title>Onsen</dc:title>
        <dc:date>2013-10-23T08:26:49</dc:date>
        <dc:description>Hot spring mark commonly used in Japan.</dc:description>
        <dc:source>https://openclipart.org/detail/185361/onsen-by-uroesch-185361</dc:source>
        <dc:creator>
          <cc:Agent>
            <dc:title>uroesch</dc:title>
          </cc:Agent>
        </dc:creator>
        <dc:subject>
          <rdf:Bag>
            <rdf:li>Hot Spring</rdf:li>
            <rdf:li>Japan</rdf:li>
            <rdf:li>Onsen</rdf:li>
          </rdf:Bag>
        </dc:subject>
      </cc:Work>
      <cc:License
         rdf:about="http://creativecommons.org/publicdomain/zero/1.0/">
        <cc:permits
           rdf:resource="http://creativecommons.org/ns#Reproduction" />
        <cc:permits
           rdf:resource="http://creativecommons.org/ns#Distribution" />
        <cc:permits
           rdf:resource="http://creativecommons.org/ns#DerivativeWorks" />
      </cc:License>
    </rdf:RDF>
  </metadata>
</svg>
