<?xml version="1.0" encoding="UTF-8" standalone="no"?>
<svg
   version="1.1"
   viewBox="0 0 550 550"
   xml:space="preserve"
   id="svg5"
   sodipodi:docname="light_unknown.svg"
   inkscape:version="1.4.2 (ebf0e940d0, 2025-05-08)"
   xmlns:inkscape="http://www.inkscape.org/namespaces/inkscape"
   xmlns:sodipodi="http://sodipodi.sourceforge.net/DTD/sodipodi-0.dtd"
   xmlns="http://www.w3.org/2000/svg"
   xmlns:svg="http://www.w3.org/2000/svg"><defs
   id="defs5" /><sodipodi:namedview
   id="namedview5"
   pagecolor="#ffffff"
   bordercolor="#000000"
   borderopacity="0.25"
   inkscape:showpageshadow="2"
   inkscape:pageopacity="0.0"
   inkscape:pagecheckerboard="0"
   inkscape:deskcolor="#d1d1d1"
   inkscape:zoom="1.6436364"
   inkscape:cx="274.99999"
   inkscape:cy="275.6084"
   inkscape:window-width="1916"
   inkscape:window-height="1149"
   inkscape:window-x="0"
   inkscape:window-y="0"
   inkscape:window-maximized="1"
   inkscape:current-layer="svg5" />
    <svg
   id="bulb"
   x="125"
   y="130"
   version="1.1">
        <path
   id="inner"
   fill="#E2ECF1"
   d="M 137.7 13.7 C 67.2 13.7 10 70.9 10 141.4 c 0 58.3 72.8 118.2 79.9 162.3 h 47.8 h 47.8 c 7.1 -44 79.9 -103.9 79.9 -162.3 C 265.3 70.9 208.2 13.7 137.7 13.7 z"
   style="fill:#9f9fa1;fill-opacity:1" />
        <g
   id="outline">
            <path
   fill="#f1f2f2"
   stroke="#38434a"
   stroke-miterlimit="10"
   stroke-width="19.1022"
   d="M 168.5 375.5 h -61.7 c -8.9 0 -16 -7.2 -16 -16 v -55.8 h 93.8 v 55.8 C 184.6 368.3 177.4 375.5 168.5 375.5 z"
   id="path1" />
            <path
   fill="#f1f2f2"
   stroke="#38434a"
   stroke-miterlimit="10"
   stroke-width="19.1022"
   d="M 151.2 401.5 h -27.1 c -3.9 0 -7 -3.2 -7 -7 v -19 h 41.1 v 19 C 158.2 398.4 155.1 401.5 151.2 401.5 z"
   id="path2" />
            <line
   x1="184.6"
   x2="90.8"
   y1="339.6"
   y2="339.6"
   fill="none"
   stroke="#38434A"
   stroke-miterlimit="10"
   stroke-width="19.1022"
   id="line2" />
            <path
   fill="none"
   stroke="#38434a"
   stroke-miterlimit="10"
   stroke-width="19.1022"
   d="M 137.7 13.7 C 67.2 13.7 10 70.9 10 141.4 c 0 58.3 72.8 118.2 79.9 162.3 h 47.8 h 47.8 c 7.1 -44 79.9 -103.9 79.9 -162.3 C 265.3 70.9 208.2 13.7 137.7 13.7 z"
   id="path3" />
        </g>
        <g
   id="highlight">
            <path
   fill="#ffdb55"
   stroke="#ffffff"
   stroke-linecap="round"
   stroke-miterlimit="10"
   stroke-width="21"
   d="M 207.1 89.5 c -12.3 -16.1 -28.4 -29.1 -46.9 -37.8"
   id="path4" />
            <path
   fill="#ffdb55"
   stroke="#ffffff"
   stroke-linecap="round"
   stroke-miterlimit="10"
   stroke-width="21"
   d="M 225 121.4 c -0.8 -2.2 -1.8 -4.4 -2.7 -6.5"
   id="path5" />
        </g>
    </svg>
<text
   xml:space="preserve"
   style="font-size:334.636px;text-align:start;writing-mode:lr-tb;direction:ltr;text-anchor:start;fill:#ff0000;fill-opacity:1;stroke:none;stroke-width:17.429;stroke-dasharray:none"
   x="189.31947"
   y="408.24112"
   id="text5"><tspan
     sodipodi:role="line"
     id="tspan5"
     x="189.31947"
     y="408.24112"
     style="stroke-width:17.429">?</tspan></text></svg>
