<?xml version="1.0" encoding="UTF-8" standalone="no"?>
<svg
   id="svg2"
   viewBox="0 0 550 550"
   version="1.1"
   inkscape:version="1.4.2 (ebf0e940d0, 2025-05-08)"
   sodipodi:docname="unknown_water.svg"
   width="550"
   height="550"
   xmlns:inkscape="http://www.inkscape.org/namespaces/inkscape"
   xmlns:sodipodi="http://sodipodi.sourceforge.net/DTD/sodipodi-0.dtd"
   xmlns="http://www.w3.org/2000/svg"
   xmlns:svg="http://www.w3.org/2000/svg"
   xmlns:rdf="http://www.w3.org/1999/02/22-rdf-syntax-ns#"
   xmlns:cc="http://creativecommons.org/ns#"
   xmlns:dc="http://purl.org/dc/elements/1.1/">
  <defs
     id="defs18529" />
  <sodipodi:namedview
     pagecolor="#ffffff"
     bordercolor="#666666"
     borderopacity="1"
     objecttolerance="10"
     gridtolerance="10"
     guidetolerance="10"
     inkscape:pageopacity="0"
     inkscape:pageshadow="2"
     inkscape:window-width="1916"
     inkscape:window-height="1149"
     id="namedview18527"
     showgrid="false"
     inkscape:zoom="1.7847595"
     inkscape:cx="273.4262"
     inkscape:cy="250.45391"
     inkscape:window-x="0"
     inkscape:window-y="0"
     inkscape:window-maximized="1"
     inkscape:current-layer="svg2"
     fit-margin-top="0"
     fit-margin-left="0"
     fit-margin-right="0"
     fit-margin-bottom="0"
     inkscape:showpageshadow="2"
     inkscape:pagecheckerboard="0"
     inkscape:deskcolor="#d1d1d1" />
  <title
     id="title3083">Onsen Mark 02</title>
  <g
     id="g6"
     transform="translate(-14.567789,52.668161)">
    <path
       style="fill:none;stroke:#0036df;stroke-width:6.77233;stroke-linejoin:round;stroke-opacity:1"
       d="m 435.27689,241.58066 c -25.29631,0 -18.91976,30 -40,30.00001 -21.08026,-10e-6 -21.05824,-30.31228 -40.00001,-30 -18.94177,0.31229 -18.33778,31.2046 -39.99999,29.99999 -21.66222,-1.2046 -15.68449,-28.68647 -40,-30 -24.31555,-1.31353 -22.30529,30.08222 -40,30.00001 -17.69472,-0.0822 -24.03947,-30.49092 -40,-30.00001 -15.96055,0.49092 -25.05771,30.93824 -40.00001,30"
       id="path2"
       sodipodi:nodetypes="czzzzzzc" />
    <path
       style="fill:none;stroke:#0036df;stroke-width:6.77233;stroke-linejoin:round;stroke-opacity:1"
       d="m 435.27689,145.20913 c -25.29631,0 -18.91976,30 -40,30.00001 -21.08026,-1e-5 -21.05824,-30.31228 -40.00001,-30 -18.94177,0.31229 -18.33778,31.2046 -39.99999,29.99999 -21.66222,-1.2046 -15.68449,-28.68647 -40,-30 -24.31555,-1.31353 -22.30529,30.08222 -40,30.00001 -17.69472,-0.0822 -24.03947,-30.49092 -40,-30.00001 -15.96055,0.49092 -25.05771,30.93824 -40.00001,30"
       id="path3"
       sodipodi:nodetypes="czzzzzzc" />
    <path
       style="fill:none;stroke:#0036df;stroke-width:6.77233;stroke-linejoin:round;stroke-opacity:1"
       d="m 435.27689,169.30201 c -25.29631,0 -18.91976,30 -40,30.00001 -21.08026,-1e-5 -21.05824,-30.31228 -40.00001,-30 -18.94177,0.31229 -18.33778,31.2046 -39.99999,29.99999 -21.66222,-1.2046 -15.68449,-28.68647 -40,-30 -24.31555,-1.31353 -22.30529,30.08222 -40,30.00001 -17.69472,-0.0822 -24.03947,-30.49092 -40,-30.00001 -15.96055,0.49092 -25.05771,30.93824 -40.00001,30"
       id="path4"
       sodipodi:nodetypes="czzzzzzc" />
    <path
       style="fill:none;stroke:#0036df;stroke-width:6.77233;stroke-linejoin:round;stroke-opacity:1"
       d="m 435.27689,193.3949 c -25.29631,0 -18.91976,30 -40,30.00001 -21.08026,-1e-5 -21.05824,-30.31228 -40.00001,-30 -18.94177,0.31229 -18.33778,31.2046 -39.99999,29.99999 -21.66222,-1.2046 -15.68449,-28.68647 -40,-30 -24.31555,-1.31353 -22.30529,30.08222 -40,30.00001 -17.69472,-0.0822 -24.03947,-30.49092 -40,-30.00001 -15.96055,0.49092 -25.05771,30.93824 -40.00001,30"
       id="path5"
       sodipodi:nodetypes="czzzzzzc" />
    <path
       style="fill:none;stroke:#0036df;stroke-width:6.77233;stroke-linejoin:round;stroke-opacity:1"
       d="m 435.27689,217.48778 c -25.29631,0 -18.91976,30 -40,30.00001 -21.08026,-1e-5 -21.05824,-30.31228 -40.00001,-30 -18.94177,0.31229 -18.33778,31.2046 -39.99999,29.99999 -21.66222,-1.2046 -15.68449,-28.68647 -40,-30 -24.31555,-1.31353 -22.30529,30.08222 -40,30.00001 -17.69472,-0.0822 -24.03947,-30.49092 -40,-30.00001 -15.96055,0.49092 -25.05771,30.93824 -40.00001,30"
       id="path6"
       sodipodi:nodetypes="czzzzzzc" />
  </g>
  <g
     id="layer1"
     transform="translate(654.56796,-525.53901)"
     style="fill:#ff0000">
    <g
       id="g3018"
       style="fill:#ff0000">
      <path
         sodipodi:nodetypes="cccccsccsccccsscsscscccc"
         inkscape:connector-curvature="0"
         d="m -189.96672,830.11815 c -5.0719,0.74907 -6.29077,11.92741 -1.6875,15.47624 5.3511,4.442 9.3329,9.02802 11.75,13.18542 10.29127,21.39672 26.60917,42.09673 4.60091,65.07981 -30.8826,23.08839 -37.25747,21.79717 -55.93147,28.623 -37.347,13.65004 -89.406,22.19618 -146.91,22.19618 -57.5,0 -111.17213,0.32058 -148.52213,-13.32946 -52.79136,-30.82871 -59.71911,-29.98577 -58.65155,-92.18416 0,-2.94341 0.80876,-6.23008 3.2188,-10.38537 2.41004,-4.15528 6.3724,-8.74586 11.719,-13.18542 4.81715,-3.92487 2.9442,-15.77758 -2.4375,-15.42541 -0.41245,0.0195 -0.82183,0.1221 -1.2188,0.30545 -21.098,9.84761 -38.218,21.27738 -50.437,34.41426 -12.219,13.1364 -20.094,28.74345 -20.094,46.83598 0,19.34041 8.9118,35.75337 22.688,49.53374 13.776,13.78053 33.087,25.66123 56.781,35.68653 47.389,20.05236 112.34,32.32746 184.09,32.32746 71.754,0 136.7,-12.2742 184.09,-32.32746 23.694,-10.02644 43.006,-21.90616 56.781,-35.68653 13.776,-13.78053 22.688,-30.19333 22.688,-49.53374 0,-18.09742 -7.9002,-33.70072 -20.125,-46.83598 -12.225,-13.13492 -29.332,-24.56649 -50.438,-34.41426 -0.63511,-0.33148 -1.30451,-0.45264 -1.9688,-0.35636 z"
         style="color:#000000;text-indent:0;text-transform:none;fill:#ff0000"
         id="path3601" />
      <text
         xml:space="preserve"
         style="font-size:351.652px;text-align:start;writing-mode:lr-tb;direction:ltr;text-anchor:start;fill:#e96060;fill-opacity:1;stroke:none;stroke-width:27.4728;stroke-linejoin:round"
         x="-462.15594"
         y="886.65631"
         id="text1"><tspan
           sodipodi:role="line"
           id="tspan1"
           x="-462.15594"
           y="886.65631"
           style="stroke-width:27.4728">?</tspan></text>
    </g>
  </g>
  <path
     id="path1" />
  <metadata
     id="metadata18525">
    <rdf:RDF>
      <cc:Work>
        <dc:format>image/svg+xml</dc:format>
        <dc:type
           rdf:resource="http://purl.org/dc/dcmitype/StillImage" />
        <cc:license
           rdf:resource="http://creativecommons.org/publicdomain/zero/1.0/" />
        <dc:publisher>
          <cc:Agent
             rdf:about="http://openclipart.org/">
            <dc:title>Openclipart</dc:title>
          </cc:Agent>
        </dc:publisher>
        <dc:title>Onsen</dc:title>
        <dc:date>2013-10-23T08:26:49</dc:date>
        <dc:description>Hot spring mark commonly used in Japan.</dc:description>
        <dc:source>https://openclipart.org/detail/185361/onsen-by-uroesch-185361</dc:source>
        <dc:creator>
          <cc:Agent>
            <dc:title>uroesch</dc:title>
          </cc:Agent>
        </dc:creator>
        <dc:subject>
          <rdf:Bag>
            <rdf:li>Hot Spring</rdf:li>
            <rdf:li>Japan</rdf:li>
            <rdf:li>Onsen</rdf:li>
          </rdf:Bag>
        </dc:subject>
      </cc:Work>
      <cc:License
         rdf:about="http://creativecommons.org/publicdomain/zero/1.0/">
        <cc:permits
           rdf:resource="http://creativecommons.org/ns#Reproduction" />
        <cc:permits
           rdf:resource="http://creativecommons.org/ns#Distribution" />
        <cc:permits
           rdf:resource="http://creativecommons.org/ns#DerivativeWorks" />
      </cc:License>
    </rdf:RDF>
  </metadata>
</svg>
